# xmcd CD database file
#
# Track frame offsets:
#	150
#	14166
#	28546
#	42269
#	54312
#	66574
#	78572
#	92539
#	104996
#	117669
#	129095
#	143288
#	156506
#	170338
#	183369
#	198704
#	212619
#	227301
#	240335
#	254972
#	267928
#	280556
#
# Disc length: 3902 seconds
#
# Revision: 0
# Processed by: cddbd v1.5PL3 Copyright (c) Steve Scherf et al.
# Submitted via: CDex 1.50
#
DISCID=3c0f3c16
DTITLE=Stan Kenton - Fascinating Rhythm
DYEAR=1900
DGENRE=Jazz
TTITLE0=Dynaflow
TTITLE1=What's New
TTITLE2=Jump for Joe
TTITLE3=Night Watch
TTITLE4=Francesca
TTITLE5=Sambo
TTITLE6=Stret of Dreams
TTITLE7=Soliloquy
TTITLE8=Lazy Daisy
TTITLE9=Mambo Rhapsody
TTITLE10=Riff Raff
TTITLE11=Stardust
TTITLE12=Bags and Baggage
TTITLE13=Bill's Blues
TTITLE14=Cool Eyes
TTITLE15=Beehive
TTITLE16=Taboo
TTITLE17=Swing House
TTITLE18=Portrait of a Count
TTITLE19=Invention for Guitar and Trumpet
TTITLE20=Lover Man
TTITLE21=Fascinating Rhythm
EXTD=
EXTT0=
EXTT1=
EXTT2=
EXTT3=
EXTT4=
EXTT5=
EXTT6=
EXTT7=
EXTT8=
EXTT9=
EXTT10=
EXTT11=
EXTT12=
EXTT13=
EXTT14=
EXTT15=
EXTT16=
EXTT17=
EXTT18=
EXTT19=
EXTT20=
EXTT21=
PLAYORDER=
